<svg width="1440" height="64" viewBox="0 0 1440 64" fill="none" xmlns="http://www.w3.org/2000/svg">
<mask id="path-1-inside-1_1_286" fill="white">
<path d="M0 0H1440V64H0V0Z"/>
</mask>
<path d="M0 1H1440V-1H0V1Z" fill="#F1EBFF" mask="url(#path-1-inside-1_1_286)"/>
<path fill-rule="evenodd" clip-rule="evenodd" d="M943.945 63L938.396 55.0901L931.449 63H928.51L937.092 53.2311L928.51 41H936.056L941.286 48.455L947.839 41H950.778L942.594 50.3165L951.491 63H943.945ZM947.218 60.77H945.24L932.718 43.23H934.697L939.712 50.2532L940.579 51.4719L947.218 60.77Z" fill="#A4A7AE"/>
<g clip-path="url(#clip0_1_286)">
<path d="M998.223 40H977.772C976.792 40 976 40.7734 976 41.7297V62.2656C976 63.2219 976.792 64 977.772 64H998.223C999.203 64 1000 63.2219 1000 62.2703V41.7297C1000 40.7734 999.203 40 998.223 40ZM983.12 60.4516H979.558V48.9953H983.12V60.4516ZM981.339 47.4344C980.195 47.4344 979.272 46.5109 979.272 45.3719C979.272 44.2328 980.195 43.3094 981.339 43.3094C982.478 43.3094 983.402 44.2328 983.402 45.3719C983.402 46.5062 982.478 47.4344 981.339 47.4344ZM996.452 60.4516H992.894V54.8828C992.894 53.5562 992.87 51.8453 991.042 51.8453C989.191 51.8453 988.909 53.2937 988.909 54.7891V60.4516H985.356V48.9953H988.769V50.5609H988.816C989.289 49.6609 990.452 48.7094 992.181 48.7094C995.786 48.7094 996.452 51.0813 996.452 54.1656V60.4516Z" fill="#A4A7AE"/>
</g>
<g clip-path="url(#clip1_1_286)">
<path d="M1048 52C1048 45.3726 1042.63 40 1036 40C1029.37 40 1024 45.3726 1024 52C1024 57.9895 1028.39 62.954 1034.12 63.8542V55.4688H1031.08V52H1034.12V49.3563C1034.12 46.3488 1035.92 44.6875 1038.66 44.6875C1039.97 44.6875 1041.34 44.9219 1041.34 44.9219V47.875H1039.83C1038.34 47.875 1037.88 48.8001 1037.88 49.75V52H1041.2L1040.67 55.4688H1037.88V63.8542C1043.61 62.954 1048 57.9895 1048 52Z" fill="#A4A7AE"/>
</g>
<g clip-path="url(#clip2_1_286)">
<path fill-rule="evenodd" clip-rule="evenodd" d="M1084 40C1077.37 40 1072 45.3808 1072 52.0204C1072 57.3304 1075.44 61.8364 1080.21 63.4252C1080.81 63.5356 1081.03 63.1648 1081.03 62.8456C1081.03 62.5612 1081.02 61.804 1081.01 60.802C1077.67 61.528 1076.97 59.1904 1076.97 59.1904C1076.42 57.8008 1075.63 57.4312 1075.63 57.4312C1074.55 56.6872 1075.72 56.7016 1075.72 56.7016C1076.92 56.7856 1077.55 57.94 1077.55 57.94C1078.63 59.776 1080.36 59.2456 1081.05 58.9384C1081.16 58.162 1081.47 57.6328 1081.81 57.3328C1079.15 57.0292 1076.34 55.9972 1076.34 51.3916C1076.34 50.08 1076.81 49.006 1077.58 48.166C1077.46 47.8624 1077.04 46.6396 1077.7 44.986C1077.7 44.986 1078.7 44.662 1081 46.2172C1081.98 45.9502 1082.99 45.8142 1084 45.8128C1085.02 45.8176 1086.05 45.9508 1087 46.2172C1089.3 44.662 1090.3 44.9848 1090.3 44.9848C1090.96 46.6396 1090.54 47.8624 1090.42 48.166C1091.19 49.006 1091.65 50.08 1091.65 51.3916C1091.65 56.0092 1088.85 57.0256 1086.18 57.3232C1086.61 57.694 1086.99 58.4272 1086.99 59.5492C1086.99 61.1548 1086.97 62.452 1086.97 62.8456C1086.97 63.1672 1087.19 63.5416 1087.8 63.424C1090.19 62.6225 1092.27 61.0904 1093.74 59.0441C1095.21 56.9977 1096 54.5408 1096 52.0204C1096 45.3808 1090.63 40 1084 40Z" fill="#A4A7AE"/>
</g>
<path d="M1137.77 50.0969C1138.32 48.5687 1139.9 44.1484 1139.9 42.7328C1139.9 41.4859 1139.16 40.4406 1137.85 40.4406C1135.76 40.4406 1133.88 46.6141 1133.3 48.0859C1132.84 46.75 1130.72 40 1128.84 40C1127.38 40 1126.7 41.0734 1126.7 42.4234C1126.7 44.0781 1128.3 48.3672 1128.88 50.0172C1128.59 49.9094 1128.27 49.8156 1127.95 49.8156C1126.85 49.8156 1125.68 51.1797 1125.68 52.2812C1125.68 52.6984 1125.91 53.2844 1126.06 53.6734C1124.33 54.1422 1123.66 55.2953 1123.66 57.0344C1123.66 60.4187 1126.86 64 1131.37 64C1136.9 64 1140.34 59.8469 1140.34 54.4891C1140.34 52.4688 1140.02 50.6453 1137.77 50.0969ZM1136.11 45.0625C1136.3 44.4859 1137.1 42.0484 1137.85 42.0484C1138.25 42.0484 1138.36 42.4656 1138.36 42.7984C1138.36 43.6938 1136.55 48.6391 1136.15 49.7359L1134.56 49.4547L1136.11 45.0625ZM1128.17 42.2641C1128.17 41.7062 1128.85 40.1219 1130.34 44.4719L1131.96 49.1734C1131.23 49.1125 1130.66 49.0328 1130.3 49.2391C1129.79 47.8891 1128.17 43.6281 1128.17 42.2641ZM1128.06 51.4375C1129.44 51.4375 1131.21 55.8719 1131.21 56.4719C1131.21 56.7109 1130.98 57.0062 1130.71 57.0062C1129.73 57.0062 1127.11 53.4016 1127.11 52.4266C1127.11 52.0656 1127.7 51.4375 1128.06 51.4375ZM1136.7 60.1703C1135.34 61.6703 1133.59 62.4484 1131.56 62.4484C1128.78 62.4484 1126.58 60.9203 1125.52 58.3094C1124.72 56.275 1125.7 55.1078 1126.48 55.1078C1127.02 55.1078 1129.03 57.9344 1129.03 58.5344C1129.03 58.7641 1128.67 58.9234 1128.48 58.9234C1127.73 58.9234 1127.43 58.1969 1126.08 56.5141C1124.69 57.9062 1127.05 60.5875 1128.82 60.5875C1130.04 60.5875 1130.84 59.4531 1130.6 58.6188C1130.77 58.6188 1130.99 58.6328 1131.15 58.5906C1131.2 59.8609 1131.57 61.375 1133.1 61.4828C1133.1 61.4406 1133.2 61.15 1133.2 61.1359C1133.2 60.3203 1132.7 59.6078 1132.7 58.7781C1132.7 57.4516 1133.72 56.1672 1134.75 55.4172C1135.12 55.1359 1135.58 54.9625 1136.02 54.8031C1136.47 54.6297 1136.95 54.4281 1137.3 54.0812C1137.25 53.5562 1137.03 53.0922 1136.51 53.0922C1135.21 53.0922 1130.86 53.2797 1130.86 51.2313C1130.86 50.9172 1130.86 50.6172 1131.67 50.6172C1133.19 50.6172 1137.03 50.9922 1138.15 51.9813C1139 52.7359 1139.29 57.2875 1136.7 60.1703ZM1132.08 54.2641C1132.53 54.4094 1133 54.4516 1133.47 54.5453C1133.13 54.7984 1132.82 55.1078 1132.52 55.4406C1132.39 55.0422 1132.23 54.6531 1132.08 54.2641Z" fill="#A4A7AE"/>
<path fill-rule="evenodd" clip-rule="evenodd" d="M1180 40C1173.38 40 1168 45.3753 1168 52C1168 58.6248 1173.38 64 1180 64C1186.61 64 1192 58.6248 1192 52C1192 45.3753 1186.61 40 1180 40ZM1187.93 45.5315C1189.36 47.2755 1190.22 49.5011 1190.24 51.9089C1189.9 51.8439 1186.52 51.154 1183.11 51.5835C1183.03 51.4143 1182.97 51.2321 1182.89 51.0499C1182.68 50.5554 1182.45 50.0477 1182.21 49.5662C1185.99 48.0304 1187.7 45.8178 1187.93 45.5315ZM1180 41.7701C1182.6 41.7701 1184.98 42.7462 1186.79 44.3471C1186.61 44.6074 1185.06 46.6768 1181.42 48.0434C1179.74 44.9588 1177.88 42.4338 1177.59 42.0434C1178.36 41.8612 1179.17 41.7701 1180 41.7701ZM1175.64 42.7332C1175.91 43.0976 1177.74 45.6356 1179.44 48.6551C1174.65 49.9306 1170.42 49.9046 1169.97 49.9046C1170.63 46.7289 1172.78 44.0868 1175.64 42.7332ZM1169.74 52.0131C1169.74 51.9089 1169.74 51.8048 1169.74 51.7007C1170.19 51.7136 1175.16 51.7787 1180.27 50.243C1180.57 50.8156 1180.85 51.4013 1181.11 51.9869C1180.98 52.026 1180.83 52.0651 1180.7 52.1041C1175.42 53.8091 1172.61 58.4685 1172.37 58.859C1170.75 57.0499 1169.74 54.6421 1169.74 52.0131ZM1180 62.256C1177.63 62.256 1175.44 61.449 1173.71 60.0954C1173.9 59.718 1175.98 55.7094 1181.76 53.692C1181.78 53.679 1181.8 53.679 1181.82 53.666C1183.27 57.4013 1183.85 60.5379 1184.01 61.436C1182.77 61.9696 1181.42 62.256 1180 62.256ZM1185.71 60.4989C1185.61 59.8742 1185.06 56.8807 1183.72 53.1974C1186.94 52.6898 1189.75 53.5228 1190.1 53.6399C1189.66 56.4902 1188.02 58.9501 1185.71 60.4989Z" fill="#A4A7AE"/>
<g clip-path="url(#clip3_1_286)">
<path opacity="0.2" d="M1216.36 53.6945L1216.42 44.9687C1216.43 43.389 1217.54 42.0348 1219.06 41.733L1227.49 40.0625C1229.51 39.661 1231.39 41.2457 1231.38 43.3425L1231.32 52.0697C1231.31 53.6487 1230.21 55.0021 1228.68 55.3047L1220.25 56.9752C1218.23 57.3767 1216.35 55.7919 1216.36 53.6945Z" fill="#A4A7AE"/>
<path opacity="0.5" d="M1220.49 57.1759L1220.55 48.4487C1220.56 46.8705 1221.67 45.517 1223.19 45.2145L1231.62 43.5447C1233.64 43.1432 1235.52 44.7272 1235.51 46.8247L1235.45 55.5519C1235.44 57.1309 1234.33 58.4843 1232.81 58.7869L1224.38 60.4574C1222.36 60.8581 1220.48 59.2741 1220.49 57.1774V57.1759Z" fill="#A4A7AE"/>
<path opacity="0.8" d="M1224.62 60.6575L1224.68 51.9302C1224.69 50.3506 1225.79 48.9978 1227.32 48.6953L1235.75 47.0248C1237.77 46.6233 1239.65 48.208 1239.64 50.3048L1239.58 59.032C1239.57 60.6117 1238.46 61.9651 1236.94 62.2669L1228.51 63.9375C1226.49 64.3389 1224.61 62.7542 1224.62 60.6575H1224.62Z" fill="#A4A7AE"/>
</g>
<defs>
<clipPath id="clip0_1_286">
<rect width="24" height="24" fill="white" transform="translate(976 40)"/>
</clipPath>
<clipPath id="clip1_1_286">
<rect width="24" height="24" fill="white" transform="translate(1024 40)"/>
</clipPath>
<clipPath id="clip2_1_286">
<rect width="24" height="24" fill="white" transform="translate(1072 40)"/>
</clipPath>
<clipPath id="clip3_1_286">
<rect width="24" height="24" fill="white" transform="translate(1216 40)"/>
</clipPath>
</defs>
</svg>
