<svg width="183" height="44" viewBox="0 0 183 44" fill="none" xmlns="http://www.w3.org/2000/svg">
<rect width="183" height="44" rx="16" fill="#F1EBFF"/>
<path d="M32.7925 19.5235C33.5825 20.3136 33.5825 21.5944 32.7925 22.3845C32.0025 23.1745 30.7216 23.1745 29.9315 22.3845C29.1415 21.5944 29.1415 20.3136 29.9315 19.5235C30.7216 18.7335 32.0025 18.7335 32.7925 19.5235" stroke="#4400DD" stroke-width="1.5" stroke-linecap="round" stroke-linejoin="round"/>
<path d="M26.2026 15.9124C27.4191 17.1288 27.4191 19.1011 26.2026 20.3176C24.9861 21.5341 23.0138 21.5341 21.7973 20.3176C20.5808 19.1012 20.5808 17.1289 21.7973 15.9124C23.0138 14.6959 24.9861 14.6959 26.2026 15.9124" stroke="#4400DD" stroke-width="1.5" stroke-linecap="round" stroke-linejoin="round"/>
<path d="M18.0685 19.5235C18.8585 20.3136 18.8585 21.5944 18.0685 22.3845C17.2785 23.1745 15.9976 23.1745 15.2075 22.3845C14.4175 21.5944 14.4175 20.3136 15.2075 19.5235C15.9976 18.7335 17.2785 18.7335 18.0685 19.5235" stroke="#4400DD" stroke-width="1.5" stroke-linecap="round" stroke-linejoin="round"/>
<path d="M35 29V27.904C35 26.523 33.881 25.404 32.5 25.404H31.699" stroke="#4400DD" stroke-width="1.5" stroke-linecap="round" stroke-linejoin="round"/>
<path d="M13 29V27.904C13 26.523 14.119 25.404 15.5 25.404H16.301" stroke="#4400DD" stroke-width="1.5" stroke-linecap="round" stroke-linejoin="round"/>
<path d="M29.339 29V27.399C29.339 25.466 27.772 23.899 25.839 23.899H22.16C20.227 23.899 18.66 25.466 18.66 27.399V29" stroke="#4400DD" stroke-width="1.5" stroke-linecap="round" stroke-linejoin="round"/>
<path d="M57.3636 20C57.2386 19.6174 57.0739 19.2746 56.8693 18.9716C56.6686 18.6648 56.428 18.4034 56.1477 18.1875C55.8712 17.9716 55.5568 17.8068 55.2045 17.6932C54.8523 17.5795 54.4659 17.5227 54.0455 17.5227C53.3561 17.5227 52.7292 17.7008 52.1648 18.0568C51.6004 18.4129 51.1515 18.9375 50.8182 19.6307C50.4848 20.3239 50.3182 21.1742 50.3182 22.1818C50.3182 23.1894 50.4867 24.0398 50.8239 24.733C51.161 25.4261 51.6174 25.9508 52.1932 26.3068C52.7689 26.6629 53.4167 26.8409 54.1364 26.8409C54.803 26.8409 55.3902 26.6989 55.8977 26.4148C56.4091 26.1269 56.8068 25.7216 57.0909 25.1989C57.3788 24.6723 57.5227 24.053 57.5227 23.3409L57.9545 23.4318H54.4545V22.1818H58.8864V23.4318C58.8864 24.3902 58.6818 25.2235 58.2727 25.9318C57.8674 26.6402 57.3068 27.1894 56.5909 27.5795C55.8788 27.9659 55.0606 28.1591 54.1364 28.1591C53.1061 28.1591 52.2008 27.9167 51.4205 27.4318C50.6439 26.947 50.0379 26.2576 49.6023 25.3636C49.1705 24.4697 48.9545 23.4091 48.9545 22.1818C48.9545 21.2614 49.0777 20.4337 49.3239 19.6989C49.5739 18.9602 49.9261 18.3314 50.3807 17.8125C50.8352 17.2936 51.3731 16.8958 51.9943 16.6193C52.6155 16.3428 53.2992 16.2045 54.0455 16.2045C54.6591 16.2045 55.2311 16.2973 55.7614 16.483C56.2955 16.6648 56.7708 16.9242 57.1875 17.2614C57.608 17.5947 57.9583 17.9943 58.2386 18.4602C58.5189 18.9223 58.7121 19.4356 58.8182 20H57.3636ZM66.6179 24.4318V19.2727H67.9588V28H66.6179V26.5227H66.527C66.3224 26.9659 66.0043 27.3428 65.5724 27.6534C65.1406 27.9602 64.5952 28.1136 63.9361 28.1136C63.3906 28.1136 62.9058 27.9943 62.4815 27.7557C62.0573 27.5133 61.724 27.1496 61.4815 26.6648C61.2391 26.1761 61.1179 25.5606 61.1179 24.8182V19.2727H62.4588V24.7273C62.4588 25.3636 62.6368 25.8712 62.9929 26.25C63.3527 26.6288 63.8111 26.8182 64.3679 26.8182C64.7012 26.8182 65.0402 26.733 65.3849 26.5625C65.7334 26.392 66.0251 26.1307 66.2599 25.7784C66.4986 25.4261 66.6179 24.9773 66.6179 24.4318ZM74.0739 28.1818C73.233 28.1818 72.5076 27.9962 71.8977 27.625C71.2917 27.25 70.8239 26.7273 70.4943 26.0568C70.1686 25.3826 70.0057 24.5985 70.0057 23.7045C70.0057 22.8106 70.1686 22.0227 70.4943 21.3409C70.8239 20.6553 71.2822 20.1212 71.8693 19.7386C72.4602 19.3523 73.1496 19.1591 73.9375 19.1591C74.392 19.1591 74.8409 19.2348 75.2841 19.3864C75.7273 19.5379 76.1307 19.7841 76.4943 20.125C76.858 20.4621 77.1477 20.9091 77.3636 21.4659C77.5795 22.0227 77.6875 22.7083 77.6875 23.5227V24.0909H70.9602V22.9318H76.3239C76.3239 22.4394 76.2254 22 76.0284 21.6136C75.8352 21.2273 75.5587 20.9223 75.1989 20.6989C74.8428 20.4754 74.4223 20.3636 73.9375 20.3636C73.4034 20.3636 72.9413 20.4962 72.5511 20.7614C72.1648 21.0227 71.8674 21.3636 71.6591 21.7841C71.4508 22.2045 71.3466 22.6553 71.3466 23.1364V23.9091C71.3466 24.5682 71.4602 25.1269 71.6875 25.5852C71.9186 26.0398 72.2386 26.3864 72.6477 26.625C73.0568 26.8598 73.5322 26.9773 74.0739 26.9773C74.4261 26.9773 74.7443 26.928 75.0284 26.8295C75.3163 26.7273 75.5644 26.5758 75.7727 26.375C75.9811 26.1705 76.142 25.9167 76.2557 25.6136L77.5511 25.9773C77.4148 26.4167 77.1856 26.803 76.8636 27.1364C76.5417 27.4659 76.1439 27.7235 75.6705 27.9091C75.197 28.0909 74.6648 28.1818 74.0739 28.1818ZM85.9091 21.2273L84.7045 21.5682C84.6288 21.3674 84.517 21.1723 84.3693 20.983C84.2254 20.7898 84.0284 20.6307 83.7784 20.5057C83.5284 20.3807 83.2083 20.3182 82.8182 20.3182C82.2841 20.3182 81.839 20.4413 81.483 20.6875C81.1307 20.9299 80.9545 21.2386 80.9545 21.6136C80.9545 21.947 81.0758 22.2102 81.3182 22.4034C81.5606 22.5966 81.9394 22.7576 82.4545 22.8864L83.75 23.2045C84.5303 23.3939 85.1117 23.6837 85.4943 24.0739C85.8769 24.4602 86.0682 24.9583 86.0682 25.5682C86.0682 26.0682 85.9242 26.5152 85.6364 26.9091C85.3523 27.303 84.9545 27.6136 84.4432 27.8409C83.9318 28.0682 83.3371 28.1818 82.6591 28.1818C81.7689 28.1818 81.0322 27.9886 80.4489 27.6023C79.8655 27.2159 79.4962 26.6515 79.3409 25.9091L80.6136 25.5909C80.7348 26.0606 80.964 26.4129 81.3011 26.6477C81.642 26.8826 82.0871 27 82.6364 27C83.2614 27 83.7576 26.8674 84.125 26.6023C84.4962 26.3333 84.6818 26.0114 84.6818 25.6364C84.6818 25.3333 84.5758 25.0795 84.3636 24.875C84.1515 24.6667 83.8258 24.5114 83.3864 24.4091L81.9318 24.0682C81.1326 23.8788 80.5455 23.5852 80.1705 23.1875C79.7992 22.786 79.6136 22.2841 79.6136 21.6818C79.6136 21.1894 79.7519 20.7538 80.0284 20.375C80.3087 19.9962 80.6894 19.6989 81.1705 19.483C81.6553 19.267 82.2045 19.1591 82.8182 19.1591C83.6818 19.1591 84.3598 19.3485 84.8523 19.7273C85.3485 20.1061 85.7008 20.6061 85.9091 21.2273ZM91.8821 19.2727V20.4091H87.3594V19.2727H91.8821ZM88.6776 17.1818H90.0185V25.5C90.0185 25.8788 90.0734 26.1629 90.1832 26.3523C90.2969 26.5379 90.4408 26.6629 90.6151 26.7273C90.7931 26.7879 90.9806 26.8182 91.1776 26.8182C91.3253 26.8182 91.4465 26.8106 91.5412 26.7955C91.6359 26.7765 91.7116 26.7614 91.7685 26.75L92.0412 27.9545C91.9503 27.9886 91.8234 28.0227 91.6605 28.0568C91.4976 28.0947 91.2912 28.1136 91.0412 28.1136C90.6624 28.1136 90.2912 28.0322 89.9276 27.8693C89.5677 27.7064 89.2685 27.4583 89.0298 27.125C88.795 26.7917 88.6776 26.3712 88.6776 25.8636V17.1818ZM101.695 28.1591C100.929 28.1591 100.27 28.0189 99.7173 27.7386C99.1643 27.4583 98.7382 27.0739 98.4389 26.5852C98.1397 26.0966 97.9901 25.5379 97.9901 24.9091C97.9901 24.4242 98.0923 23.9943 98.2969 23.6193C98.5052 23.2405 98.7912 22.8902 99.1548 22.5682C99.5223 22.2424 99.9446 21.9167 100.422 21.5909L102.104 20.3409C102.433 20.125 102.696 19.8939 102.893 19.6477C103.094 19.4015 103.195 19.0795 103.195 18.6818C103.195 18.3864 103.064 18.1004 102.803 17.8239C102.545 17.5473 102.206 17.4091 101.786 17.4091C101.49 17.4091 101.229 17.4848 101.001 17.6364C100.778 17.7841 100.602 17.9735 100.473 18.2045C100.348 18.4318 100.286 18.6667 100.286 18.9091C100.286 19.1818 100.359 19.4583 100.507 19.7386C100.659 20.0152 100.85 20.2992 101.081 20.5909C101.316 20.8788 101.558 21.1742 101.808 21.4773L107.149 28H105.536L101.126 22.6818C100.717 22.1894 100.346 21.7424 100.013 21.3409C99.6795 20.9394 99.4143 20.5436 99.2173 20.1534C99.0204 19.7633 98.9219 19.3409 98.9219 18.8864C98.9219 18.3636 99.0374 17.9053 99.2685 17.5114C99.5033 17.1136 99.831 16.8049 100.251 16.5852C100.676 16.3617 101.172 16.25 101.74 16.25C102.323 16.25 102.825 16.3636 103.246 16.5909C103.666 16.8144 103.99 17.1117 104.217 17.483C104.445 17.8504 104.558 18.25 104.558 18.6818C104.558 19.2386 104.42 19.7216 104.143 20.1307C103.867 20.5398 103.49 20.9205 103.013 21.2727L100.695 23C100.172 23.3864 99.8177 23.7614 99.6321 24.125C99.4465 24.4886 99.3537 24.75 99.3537 24.9091C99.3537 25.2727 99.4484 25.6117 99.6378 25.9261C99.8272 26.2405 100.094 26.4943 100.439 26.6875C100.784 26.8807 101.187 26.9773 101.649 26.9773C102.089 26.9773 102.517 26.8845 102.933 26.6989C103.35 26.5095 103.727 26.2367 104.064 25.8807C104.405 25.5246 104.674 25.0966 104.871 24.5966C105.071 24.0966 105.172 23.5341 105.172 22.9091H106.467C106.467 23.6818 106.378 24.3125 106.2 24.8011C106.022 25.2898 105.821 25.6723 105.598 25.9489C105.375 26.2254 105.195 26.4318 105.058 26.5682C105.013 26.625 104.971 26.6818 104.933 26.7386C104.895 26.7955 104.854 26.8523 104.808 26.9091C104.433 27.3295 103.96 27.6439 103.388 27.8523C102.816 28.0568 102.251 28.1591 101.695 28.1591ZM113.134 28V19.2727H114.429V20.5909H114.52C114.679 20.1591 114.967 19.8087 115.384 19.5398C115.8 19.2708 116.27 19.1364 116.793 19.1364C116.891 19.1364 117.014 19.1383 117.162 19.142C117.31 19.1458 117.421 19.1515 117.497 19.1591V20.5227C117.452 20.5114 117.348 20.4943 117.185 20.4716C117.026 20.4451 116.857 20.4318 116.679 20.4318C116.255 20.4318 115.876 20.5208 115.543 20.6989C115.213 20.8731 114.952 21.1155 114.759 21.4261C114.569 21.733 114.474 22.0833 114.474 22.4773V28H113.134ZM122.366 28.1818C121.579 28.1818 120.887 27.9943 120.293 27.6193C119.702 27.2443 119.24 26.7197 118.906 26.0455C118.577 25.3712 118.412 24.5833 118.412 23.6818C118.412 22.7727 118.577 21.9792 118.906 21.3011C119.24 20.6231 119.702 20.0966 120.293 19.7216C120.887 19.3466 121.579 19.1591 122.366 19.1591C123.154 19.1591 123.844 19.3466 124.435 19.7216C125.029 20.0966 125.491 20.6231 125.821 21.3011C126.154 21.9792 126.321 22.7727 126.321 23.6818C126.321 24.5833 126.154 25.3712 125.821 26.0455C125.491 26.7197 125.029 27.2443 124.435 27.6193C123.844 27.9943 123.154 28.1818 122.366 28.1818ZM122.366 26.9773C122.965 26.9773 123.457 26.8239 123.844 26.517C124.23 26.2102 124.516 25.8068 124.702 25.3068C124.887 24.8068 124.98 24.2652 124.98 23.6818C124.98 23.0985 124.887 22.5549 124.702 22.0511C124.516 21.5473 124.23 21.1402 123.844 20.8295C123.457 20.5189 122.965 20.3636 122.366 20.3636C121.768 20.3636 121.276 20.5189 120.889 20.8295C120.503 21.1402 120.217 21.5473 120.031 22.0511C119.846 22.5549 119.753 23.0985 119.753 23.6818C119.753 24.2652 119.846 24.8068 120.031 25.3068C120.217 25.8068 120.503 26.2102 120.889 26.517C121.276 26.8239 121.768 26.9773 122.366 26.9773ZM131.913 28.1818C131.125 28.1818 130.434 27.9943 129.839 27.6193C129.249 27.2443 128.786 26.7197 128.453 26.0455C128.124 25.3712 127.959 24.5833 127.959 23.6818C127.959 22.7727 128.124 21.9792 128.453 21.3011C128.786 20.6231 129.249 20.0966 129.839 19.7216C130.434 19.3466 131.125 19.1591 131.913 19.1591C132.701 19.1591 133.391 19.3466 133.982 19.7216C134.576 20.0966 135.038 20.6231 135.368 21.3011C135.701 21.9792 135.868 22.7727 135.868 23.6818C135.868 24.5833 135.701 25.3712 135.368 26.0455C135.038 26.7197 134.576 27.2443 133.982 27.6193C133.391 27.9943 132.701 28.1818 131.913 28.1818ZM131.913 26.9773C132.512 26.9773 133.004 26.8239 133.391 26.517C133.777 26.2102 134.063 25.8068 134.249 25.3068C134.434 24.8068 134.527 24.2652 134.527 23.6818C134.527 23.0985 134.434 22.5549 134.249 22.0511C134.063 21.5473 133.777 21.1402 133.391 20.8295C133.004 20.5189 132.512 20.3636 131.913 20.3636C131.315 20.3636 130.822 20.5189 130.436 20.8295C130.05 21.1402 129.764 21.5473 129.578 22.0511C129.393 22.5549 129.3 23.0985 129.3 23.6818C129.3 24.2652 129.393 24.8068 129.578 25.3068C129.764 25.8068 130.05 26.2102 130.436 26.517C130.822 26.8239 131.315 26.9773 131.913 26.9773ZM137.915 28V19.2727H139.21V20.6364H139.324C139.506 20.1705 139.799 19.8087 140.205 19.5511C140.61 19.2898 141.097 19.1591 141.665 19.1591C142.241 19.1591 142.72 19.2898 143.102 19.5511C143.489 19.8087 143.79 20.1705 144.006 20.6364H144.097C144.32 20.1856 144.655 19.8277 145.102 19.5625C145.549 19.2936 146.085 19.1591 146.71 19.1591C147.491 19.1591 148.129 19.4034 148.625 19.892C149.121 20.3769 149.369 21.1326 149.369 22.1591V28H148.028V22.1591C148.028 21.5152 147.852 21.0549 147.5 20.7784C147.148 20.5019 146.733 20.3636 146.256 20.3636C145.642 20.3636 145.167 20.5492 144.83 20.9205C144.492 21.2879 144.324 21.7538 144.324 22.3182V28H142.96V22.0227C142.96 21.5265 142.799 21.1269 142.477 20.8239C142.155 20.517 141.741 20.3636 141.233 20.3636C140.884 20.3636 140.559 20.4564 140.256 20.642C139.956 20.8277 139.714 21.0852 139.528 21.4148C139.347 21.7405 139.256 22.1174 139.256 22.5455V28H137.915ZM158.003 21.2273L156.798 21.5682C156.723 21.3674 156.611 21.1723 156.463 20.983C156.319 20.7898 156.122 20.6307 155.872 20.5057C155.622 20.3807 155.302 20.3182 154.912 20.3182C154.378 20.3182 153.933 20.4413 153.577 20.6875C153.224 20.9299 153.048 21.2386 153.048 21.6136C153.048 21.947 153.17 22.2102 153.412 22.4034C153.654 22.5966 154.033 22.7576 154.548 22.8864L155.844 23.2045C156.624 23.3939 157.205 23.6837 157.588 24.0739C157.971 24.4602 158.162 24.9583 158.162 25.5682C158.162 26.0682 158.018 26.5152 157.73 26.9091C157.446 27.303 157.048 27.6136 156.537 27.8409C156.026 28.0682 155.431 28.1818 154.753 28.1818C153.863 28.1818 153.126 27.9886 152.543 27.6023C151.959 27.2159 151.59 26.6515 151.435 25.9091L152.707 25.5909C152.829 26.0606 153.058 26.4129 153.395 26.6477C153.736 26.8826 154.181 27 154.73 27C155.355 27 155.851 26.8674 156.219 26.6023C156.59 26.3333 156.776 26.0114 156.776 25.6364C156.776 25.3333 156.67 25.0795 156.457 24.875C156.245 24.6667 155.92 24.5114 155.48 24.4091L154.026 24.0682C153.226 23.8788 152.639 23.5852 152.264 23.1875C151.893 22.786 151.707 22.2841 151.707 21.6818C151.707 21.1894 151.846 20.7538 152.122 20.375C152.402 19.9962 152.783 19.6989 153.264 19.483C153.749 19.267 154.298 19.1591 154.912 19.1591C155.776 19.1591 156.454 19.3485 156.946 19.7273C157.442 20.1061 157.795 20.6061 158.003 21.2273Z" fill="#323232"/>
</svg>
