<svg width="182" height="44" viewBox="0 0 182 44" fill="none" xmlns="http://www.w3.org/2000/svg">
<rect width="182" height="44" rx="16" fill="#F1EBFF"/>
<path d="M30.383 18H31.444C32.304 18 33 18.696 33 19.556V29.445C33 30.304 32.304 31 31.444 31H20.556C19.696 31 19 30.304 19 29.444V28" stroke="#4400DD" stroke-width="1.5" stroke-linecap="round" stroke-linejoin="round"/>
<path fill-rule="evenodd" clip-rule="evenodd" d="M16.001 28H27.313C27.982 28 28.606 27.666 28.977 27.109L29.711 26.007C30.149 25.35 30.383 24.578 30.383 23.788V16C30.383 14.895 29.488 14 28.383 14H18.383C17.278 14 16.383 14.895 16.383 16V23.056C16.383 23.677 16.238 24.289 15.961 24.845L15.107 26.553C14.774 27.218 15.258 28 16.001 28Z" stroke="#4400DD" stroke-width="1.5" stroke-linecap="round" stroke-linejoin="round"/>
<path d="M20.38 13V15" stroke="#4400DD" stroke-width="1.5" stroke-linecap="round" stroke-linejoin="round"/>
<path d="M26.38 13V15" stroke="#4400DD" stroke-width="1.5" stroke-linecap="round" stroke-linejoin="round"/>
<path d="M20.19 19H26.19" stroke="#4400DD" stroke-width="1.5" stroke-linecap="round" stroke-linejoin="round"/>
<path d="M20.19 23H26.19" stroke="#4400DD" stroke-width="1.5" stroke-linecap="round" stroke-linejoin="round"/>
<path d="M49.4091 28V16.3636H53.4773C54.2879 16.3636 54.9564 16.5038 55.483 16.7841C56.0095 17.0606 56.4015 17.4337 56.6591 17.9034C56.9167 18.3693 57.0455 18.8864 57.0455 19.4545C57.0455 19.9545 56.9564 20.3674 56.7784 20.6932C56.6042 21.0189 56.3731 21.2765 56.0852 21.4659C55.8011 21.6553 55.4924 21.7955 55.1591 21.8864V22C55.5152 22.0227 55.8731 22.1477 56.233 22.375C56.5928 22.6023 56.8939 22.928 57.1364 23.3523C57.3788 23.7765 57.5 24.2955 57.5 24.9091C57.5 25.4924 57.3674 26.017 57.1023 26.483C56.8371 26.9489 56.4186 27.3182 55.8466 27.5909C55.2746 27.8636 54.5303 28 53.6136 28H49.4091ZM50.8182 26.75H53.6136C54.5341 26.75 55.1875 26.572 55.5739 26.2159C55.964 25.8561 56.1591 25.4205 56.1591 24.9091C56.1591 24.5152 56.0587 24.1515 55.858 23.8182C55.6572 23.4811 55.3712 23.2121 55 23.0114C54.6288 22.8068 54.1894 22.7045 53.6818 22.7045H50.8182V26.75ZM50.8182 21.4773H53.4318C53.8561 21.4773 54.2386 21.3939 54.5795 21.2273C54.9242 21.0606 55.197 20.8258 55.3977 20.5227C55.6023 20.2197 55.7045 19.8636 55.7045 19.4545C55.7045 18.9432 55.5265 18.5095 55.1705 18.1534C54.8144 17.7936 54.25 17.6136 53.4773 17.6136H50.8182V21.4773ZM63.179 28.1818C62.3911 28.1818 61.6998 27.9943 61.1051 27.6193C60.5142 27.2443 60.0521 26.7197 59.7188 26.0455C59.3892 25.3712 59.2244 24.5833 59.2244 23.6818C59.2244 22.7727 59.3892 21.9792 59.7188 21.3011C60.0521 20.6231 60.5142 20.0966 61.1051 19.7216C61.6998 19.3466 62.3911 19.1591 63.179 19.1591C63.9669 19.1591 64.6563 19.3466 65.2472 19.7216C65.8419 20.0966 66.304 20.6231 66.6335 21.3011C66.9669 21.9792 67.1335 22.7727 67.1335 23.6818C67.1335 24.5833 66.9669 25.3712 66.6335 26.0455C66.304 26.7197 65.8419 27.2443 65.2472 27.6193C64.6563 27.9943 63.9669 28.1818 63.179 28.1818ZM63.179 26.9773C63.7775 26.9773 64.2699 26.8239 64.6562 26.517C65.0426 26.2102 65.3286 25.8068 65.5142 25.3068C65.6998 24.8068 65.7926 24.2652 65.7926 23.6818C65.7926 23.0985 65.6998 22.5549 65.5142 22.0511C65.3286 21.5473 65.0426 21.1402 64.6562 20.8295C64.2699 20.5189 63.7775 20.3636 63.179 20.3636C62.5805 20.3636 62.0881 20.5189 61.7017 20.8295C61.3153 21.1402 61.0294 21.5473 60.8438 22.0511C60.6581 22.5549 60.5653 23.0985 60.5653 23.6818C60.5653 24.2652 60.6581 24.8068 60.8438 25.3068C61.0294 25.8068 61.3153 26.2102 61.7017 26.517C62.0881 26.8239 62.5805 26.9773 63.179 26.9773ZM72.7259 28.1818C71.938 28.1818 71.2467 27.9943 70.652 27.6193C70.0611 27.2443 69.599 26.7197 69.2656 26.0455C68.9361 25.3712 68.7713 24.5833 68.7713 23.6818C68.7713 22.7727 68.9361 21.9792 69.2656 21.3011C69.599 20.6231 70.0611 20.0966 70.652 19.7216C71.2467 19.3466 71.938 19.1591 72.7259 19.1591C73.5137 19.1591 74.2031 19.3466 74.794 19.7216C75.3887 20.0966 75.8509 20.6231 76.1804 21.3011C76.5137 21.9792 76.6804 22.7727 76.6804 23.6818C76.6804 24.5833 76.5137 25.3712 76.1804 26.0455C75.8509 26.7197 75.3887 27.2443 74.794 27.6193C74.2031 27.9943 73.5137 28.1818 72.7259 28.1818ZM72.7259 26.9773C73.3243 26.9773 73.8168 26.8239 74.2031 26.517C74.5895 26.2102 74.8755 25.8068 75.0611 25.3068C75.2467 24.8068 75.3395 24.2652 75.3395 23.6818C75.3395 23.0985 75.2467 22.5549 75.0611 22.0511C74.8755 21.5473 74.5895 21.1402 74.2031 20.8295C73.8168 20.5189 73.3243 20.3636 72.7259 20.3636C72.1274 20.3636 71.6349 20.5189 71.2486 20.8295C70.8622 21.1402 70.5762 21.5473 70.3906 22.0511C70.205 22.5549 70.1122 23.0985 70.1122 23.6818C70.1122 24.2652 70.205 24.8068 70.3906 25.3068C70.5762 25.8068 70.8622 26.2102 71.2486 26.517C71.6349 26.8239 72.1274 26.9773 72.7259 26.9773ZM79.9773 24.8182L79.9545 23.1591H80.2273L84.0455 19.2727H85.7045L81.6364 23.3864H81.5227L79.9773 24.8182ZM78.7273 28V16.3636H80.0682V28H78.7273ZM84.2727 28L80.8636 23.6818L81.8182 22.75L85.9773 28H84.2727ZM87.4304 28V19.2727H88.7713V28H87.4304ZM88.1122 17.8182C87.8509 17.8182 87.6255 17.7292 87.4361 17.5511C87.2505 17.3731 87.1577 17.1591 87.1577 16.9091C87.1577 16.6591 87.2505 16.4451 87.4361 16.267C87.6255 16.089 87.8509 16 88.1122 16C88.3736 16 88.5971 16.089 88.7827 16.267C88.9721 16.4451 89.0668 16.6591 89.0668 16.9091C89.0668 17.1591 88.9721 17.3731 88.7827 17.5511C88.5971 17.7292 88.3736 17.8182 88.1122 17.8182ZM92.5682 22.75V28H91.2273V19.2727H92.5227V20.6364H92.6364C92.8409 20.1932 93.1515 19.8371 93.5682 19.5682C93.9848 19.2955 94.5227 19.1591 95.1818 19.1591C95.7727 19.1591 96.2898 19.2803 96.733 19.5227C97.1761 19.7614 97.5208 20.125 97.767 20.6136C98.0133 21.0985 98.1364 21.7121 98.1364 22.4545V28H96.7955V22.5455C96.7955 21.8598 96.6174 21.3258 96.2614 20.9432C95.9053 20.5568 95.4167 20.3636 94.7955 20.3636C94.3674 20.3636 93.9848 20.4564 93.6477 20.642C93.3144 20.8277 93.0511 21.0985 92.858 21.4545C92.6648 21.8106 92.5682 22.2424 92.5682 22.75ZM104.109 31.4545C103.462 31.4545 102.905 31.3712 102.439 31.2045C101.973 31.0417 101.585 30.8258 101.274 30.5568C100.967 30.2917 100.723 30.0076 100.541 29.7045L101.609 28.9545C101.731 29.1136 101.884 29.2955 102.07 29.5C102.255 29.7083 102.509 29.8883 102.831 30.0398C103.157 30.1951 103.583 30.2727 104.109 30.2727C104.814 30.2727 105.395 30.1023 105.854 29.7614C106.312 29.4205 106.541 28.8864 106.541 28.1591V26.3864H106.428C106.329 26.5455 106.189 26.7424 106.007 26.9773C105.829 27.2083 105.571 27.4148 105.234 27.5966C104.901 27.7746 104.45 27.8636 103.882 27.8636C103.178 27.8636 102.545 27.697 101.984 27.3636C101.428 27.0303 100.986 26.5455 100.661 25.9091C100.339 25.2727 100.178 24.5 100.178 23.5909C100.178 22.697 100.335 21.9186 100.649 21.2557C100.964 20.589 101.401 20.0739 101.962 19.7102C102.522 19.3428 103.17 19.1591 103.905 19.1591C104.473 19.1591 104.924 19.2538 105.257 19.4432C105.594 19.6288 105.852 19.8409 106.03 20.0795C106.212 20.3144 106.352 20.5076 106.45 20.6591H106.587V19.2727H107.882V28.25C107.882 29 107.712 29.6098 107.371 30.0795C107.034 30.553 106.579 30.8996 106.007 31.1193C105.439 31.3428 104.806 31.4545 104.109 31.4545ZM104.064 26.6591C104.602 26.6591 105.056 26.536 105.428 26.2898C105.799 26.0436 106.081 25.6894 106.274 25.2273C106.467 24.7652 106.564 24.2121 106.564 23.5682C106.564 22.9394 106.469 22.3845 106.28 21.9034C106.09 21.4223 105.81 21.0455 105.439 20.7727C105.068 20.5 104.609 20.3636 104.064 20.3636C103.496 20.3636 103.022 20.5076 102.643 20.7955C102.268 21.0833 101.986 21.4697 101.797 21.9545C101.611 22.4394 101.518 22.9773 101.518 23.5682C101.518 24.1742 101.613 24.7102 101.803 25.1761C101.996 25.6383 102.28 26.0019 102.655 26.267C103.034 26.5284 103.503 26.6591 104.064 26.6591ZM118.609 28H115.018V16.3636H118.768C119.897 16.3636 120.863 16.5966 121.666 17.0625C122.469 17.5246 123.085 18.1894 123.513 19.0568C123.941 19.9205 124.155 20.9545 124.155 22.1591C124.155 23.3712 123.939 24.4148 123.507 25.2898C123.075 26.161 122.446 26.8314 121.621 27.3011C120.795 27.767 119.791 28 118.609 28ZM116.428 26.75H118.518C119.481 26.75 120.278 26.5644 120.911 26.1932C121.543 25.822 122.015 25.2936 122.325 24.608C122.636 23.9223 122.791 23.1061 122.791 22.1591C122.791 21.2197 122.638 20.411 122.331 19.733C122.024 19.0511 121.566 18.5284 120.956 18.1648C120.346 17.7973 119.587 17.6136 118.678 17.6136H116.428V26.75ZM128.905 28.2045C128.352 28.2045 127.85 28.1004 127.399 27.892C126.948 27.6799 126.59 27.375 126.325 26.9773C126.06 26.5758 125.928 26.0909 125.928 25.5227C125.928 25.0227 126.026 24.6174 126.223 24.3068C126.42 23.9924 126.683 23.7462 127.013 23.5682C127.342 23.3902 127.706 23.2576 128.104 23.1705C128.505 23.0795 128.909 23.0076 129.314 22.9545C129.844 22.8864 130.274 22.8352 130.604 22.8011C130.937 22.7633 131.179 22.7008 131.331 22.6136C131.486 22.5265 131.564 22.375 131.564 22.1591V22.1136C131.564 21.553 131.411 21.1174 131.104 20.8068C130.801 20.4962 130.34 20.3409 129.723 20.3409C129.083 20.3409 128.581 20.4811 128.217 20.7614C127.854 21.0417 127.598 21.3409 127.45 21.6591L126.178 21.2045C126.405 20.6742 126.708 20.2614 127.087 19.9659C127.469 19.6667 127.886 19.4583 128.337 19.3409C128.791 19.2197 129.238 19.1591 129.678 19.1591C129.958 19.1591 130.28 19.1932 130.643 19.2614C131.011 19.3258 131.365 19.4602 131.706 19.6648C132.051 19.8693 132.337 20.178 132.564 20.5909C132.791 21.0038 132.905 21.5568 132.905 22.25V28H131.564V26.8182H131.496C131.405 27.0076 131.253 27.2102 131.041 27.4261C130.829 27.642 130.547 27.8258 130.195 27.9773C129.842 28.1288 129.412 28.2045 128.905 28.2045ZM129.109 27C129.64 27 130.087 26.8958 130.45 26.6875C130.818 26.4792 131.094 26.2102 131.28 25.8807C131.469 25.5511 131.564 25.2045 131.564 24.8409V23.6136C131.507 23.6818 131.382 23.7443 131.189 23.8011C131 23.8542 130.78 23.9015 130.53 23.9432C130.284 23.9811 130.043 24.0152 129.808 24.0455C129.577 24.072 129.39 24.0947 129.246 24.1136C128.897 24.1591 128.571 24.233 128.268 24.3352C127.969 24.4337 127.727 24.5833 127.541 24.7841C127.359 24.9811 127.268 25.25 127.268 25.5909C127.268 26.0568 127.441 26.4091 127.786 26.6477C128.134 26.8826 128.575 27 129.109 27ZM139.148 19.2727V20.4091H134.625V19.2727H139.148ZM135.943 17.1818H137.284V25.5C137.284 25.8788 137.339 26.1629 137.449 26.3523C137.563 26.5379 137.706 26.6629 137.881 26.7273C138.059 26.7879 138.246 26.8182 138.443 26.8182C138.591 26.8182 138.712 26.8106 138.807 26.7955C138.902 26.7765 138.977 26.7614 139.034 26.75L139.307 27.9545C139.216 27.9886 139.089 28.0227 138.926 28.0568C138.763 28.0947 138.557 28.1136 138.307 28.1136C137.928 28.1136 137.557 28.0322 137.193 27.8693C136.833 27.7064 136.534 27.4583 136.295 27.125C136.061 26.7917 135.943 26.3712 135.943 25.8636V17.1818ZM144.73 28.1818C143.889 28.1818 143.164 27.9962 142.554 27.625C141.948 27.25 141.48 26.7273 141.151 26.0568C140.825 25.3826 140.662 24.5985 140.662 23.7045C140.662 22.8106 140.825 22.0227 141.151 21.3409C141.48 20.6553 141.938 20.1212 142.526 19.7386C143.116 19.3523 143.806 19.1591 144.594 19.1591C145.048 19.1591 145.497 19.2348 145.94 19.3864C146.384 19.5379 146.787 19.7841 147.151 20.125C147.514 20.4621 147.804 20.9091 148.02 21.4659C148.236 22.0227 148.344 22.7083 148.344 23.5227V24.0909H141.616V22.9318H146.98C146.98 22.4394 146.882 22 146.685 21.6136C146.491 21.2273 146.215 20.9223 145.855 20.6989C145.499 20.4754 145.079 20.3636 144.594 20.3636C144.06 20.3636 143.598 20.4962 143.207 20.7614C142.821 21.0227 142.524 21.3636 142.315 21.7841C142.107 22.2045 142.003 22.6553 142.003 23.1364V23.9091C142.003 24.5682 142.116 25.1269 142.344 25.5852C142.575 26.0398 142.895 26.3864 143.304 26.625C143.713 26.8598 144.188 26.9773 144.73 26.9773C145.082 26.9773 145.401 26.928 145.685 26.8295C145.973 26.7273 146.221 26.5758 146.429 26.375C146.637 26.1705 146.798 25.9167 146.912 25.6136L148.207 25.9773C148.071 26.4167 147.842 26.803 147.52 27.1364C147.198 27.4659 146.8 27.7235 146.327 27.9091C145.853 28.0909 145.321 28.1818 144.73 28.1818ZM156.565 21.2273L155.361 21.5682C155.285 21.3674 155.173 21.1723 155.026 20.983C154.882 20.7898 154.685 20.6307 154.435 20.5057C154.185 20.3807 153.865 20.3182 153.474 20.3182C152.94 20.3182 152.495 20.4413 152.139 20.6875C151.787 20.9299 151.611 21.2386 151.611 21.6136C151.611 21.947 151.732 22.2102 151.974 22.4034C152.217 22.5966 152.596 22.7576 153.111 22.8864L154.406 23.2045C155.187 23.3939 155.768 23.6837 156.151 24.0739C156.533 24.4602 156.724 24.9583 156.724 25.5682C156.724 26.0682 156.58 26.5152 156.293 26.9091C156.009 27.303 155.611 27.6136 155.099 27.8409C154.588 28.0682 153.993 28.1818 153.315 28.1818C152.425 28.1818 151.688 27.9886 151.105 27.6023C150.522 27.2159 150.152 26.6515 149.997 25.9091L151.27 25.5909C151.391 26.0606 151.62 26.4129 151.957 26.6477C152.298 26.8826 152.743 27 153.293 27C153.918 27 154.414 26.8674 154.781 26.6023C155.152 26.3333 155.338 26.0114 155.338 25.6364C155.338 25.3333 155.232 25.0795 155.02 24.875C154.808 24.6667 154.482 24.5114 154.043 24.4091L152.588 24.0682C151.789 23.8788 151.202 23.5852 150.827 23.1875C150.455 22.786 150.27 22.2841 150.27 21.6818C150.27 21.1894 150.408 20.7538 150.685 20.375C150.965 19.9962 151.346 19.6989 151.827 19.483C152.312 19.267 152.861 19.1591 153.474 19.1591C154.338 19.1591 155.016 19.3485 155.509 19.7273C156.005 20.1061 156.357 20.6061 156.565 21.2273Z" fill="#323232"/>
</svg>
