<svg width="211" height="44" viewBox="0 0 211 44" fill="none" xmlns="http://www.w3.org/2000/svg">
<rect width="211" height="44" rx="16" fill="#F1EBFF"/>
<path d="M17.9975 23.1535C16.1597 23.9778 14.9962 25.1703 14.9962 26.5019C14.9962 28.9879 19.0269 31.0037 24 31.0037C28.9731 31.0037 33.0037 28.9879 33.0037 26.5019C33.0037 25.1703 31.8403 23.9778 30.0025 23.1535" stroke="#4400DD" stroke-width="1.5" stroke-linecap="round" stroke-linejoin="round"/>
<path d="M27.6535 27.0021C26.5694 27.7075 25.2922 28.0572 24 28.0025C22.7077 28.0572 21.4306 27.7075 20.3465 27.0021" stroke="#4400DD" stroke-width="1.5" stroke-linecap="round" stroke-linejoin="round"/>
<path d="M26.2009 13.9096C27.0928 14.8014 27.3596 16.1427 26.8769 17.3079C26.3943 18.4732 25.2572 19.233 23.996 19.233C22.7347 19.233 21.5977 18.4732 21.115 17.3079C20.6324 16.1427 20.8992 14.8014 21.7911 13.9096C22.3757 13.3246 23.1689 12.9959 23.996 12.9959C24.8231 12.9959 25.6162 13.3246 26.2009 13.9096" stroke="#4400DD" stroke-width="1.5" stroke-linecap="round" stroke-linejoin="round"/>
<path d="M24 19.2308V25.0012" stroke="#4400DD" stroke-width="1.5" stroke-linecap="round" stroke-linejoin="round"/>
<path d="M58.7727 20H57.3636C57.2803 19.5947 57.1345 19.2386 56.9261 18.9318C56.7216 18.625 56.4716 18.3674 56.1761 18.1591C55.8845 17.947 55.5606 17.7879 55.2045 17.6818C54.8485 17.5758 54.4773 17.5227 54.0909 17.5227C53.3864 17.5227 52.7481 17.7008 52.1761 18.0568C51.608 18.4129 51.1553 18.9375 50.8182 19.6307C50.4848 20.3239 50.3182 21.1742 50.3182 22.1818C50.3182 23.1894 50.4848 24.0398 50.8182 24.733C51.1553 25.4261 51.608 25.9508 52.1761 26.3068C52.7481 26.6629 53.3864 26.8409 54.0909 26.8409C54.4773 26.8409 54.8485 26.7879 55.2045 26.6818C55.5606 26.5758 55.8845 26.4186 56.1761 26.2102C56.4716 25.9981 56.7216 25.7386 56.9261 25.4318C57.1345 25.1212 57.2803 24.7652 57.3636 24.3636H58.7727C58.6667 24.9583 58.4735 25.4905 58.1932 25.9602C57.9129 26.4299 57.5644 26.8295 57.1477 27.1591C56.7311 27.4848 56.2633 27.733 55.7443 27.9034C55.2292 28.0739 54.678 28.1591 54.0909 28.1591C53.0985 28.1591 52.2159 27.9167 51.4432 27.4318C50.6705 26.947 50.0625 26.2576 49.6193 25.3636C49.1761 24.4697 48.9545 23.4091 48.9545 22.1818C48.9545 20.9545 49.1761 19.8939 49.6193 19C50.0625 18.1061 50.6705 17.4167 51.4432 16.9318C52.2159 16.447 53.0985 16.2045 54.0909 16.2045C54.678 16.2045 55.2292 16.2898 55.7443 16.4602C56.2633 16.6307 56.7311 16.8807 57.1477 17.2102C57.5644 17.536 57.9129 17.9337 58.1932 18.4034C58.4735 18.8693 58.6667 19.4015 58.7727 20ZM60.8679 28V19.2727H62.2088V28H60.8679ZM61.5497 17.8182C61.2884 17.8182 61.063 17.7292 60.8736 17.5511C60.688 17.3731 60.5952 17.1591 60.5952 16.9091C60.5952 16.6591 60.688 16.4451 60.8736 16.267C61.063 16.089 61.2884 16 61.5497 16C61.8111 16 62.0346 16.089 62.2202 16.267C62.4096 16.4451 62.5043 16.6591 62.5043 16.9091C62.5043 17.1591 62.4096 17.3731 62.2202 17.5511C62.0346 17.7292 61.8111 17.8182 61.5497 17.8182ZM68.4602 19.2727V20.4091H63.9375V19.2727H68.4602ZM65.2557 17.1818H66.5966V25.5C66.5966 25.8788 66.6515 26.1629 66.7614 26.3523C66.875 26.5379 67.0189 26.6629 67.1932 26.7273C67.3712 26.7879 67.5587 26.8182 67.7557 26.8182C67.9034 26.8182 68.0246 26.8106 68.1193 26.7955C68.214 26.7765 68.2898 26.7614 68.3466 26.75L68.6193 27.9545C68.5284 27.9886 68.4015 28.0227 68.2386 28.0568C68.0758 28.0947 67.8693 28.1136 67.6193 28.1136C67.2405 28.1136 66.8693 28.0322 66.5057 27.8693C66.1458 27.7064 65.8466 27.4583 65.608 27.125C65.3731 26.7917 65.2557 26.3712 65.2557 25.8636V17.1818ZM71.3409 31.2727C71.1136 31.2727 70.911 31.2538 70.733 31.2159C70.5549 31.1818 70.4318 31.1477 70.3636 31.1136L70.7045 29.9318C71.0303 30.0152 71.3182 30.0455 71.5682 30.0227C71.8182 30 72.0398 29.8883 72.233 29.6875C72.4299 29.4905 72.6098 29.1705 72.7727 28.7273L73.0227 28.0455L69.7955 19.2727H71.25L73.6591 26.2273H73.75L76.1591 19.2727H77.6136L73.9091 29.2727C73.7424 29.7235 73.536 30.0966 73.2898 30.392C73.0436 30.6913 72.7576 30.9129 72.4318 31.0568C72.1098 31.2008 71.7462 31.2727 71.3409 31.2727ZM87.429 28.1818C86.6411 28.1818 85.9498 27.9943 85.3551 27.6193C84.7642 27.2443 84.3021 26.7197 83.9688 26.0455C83.6392 25.3712 83.4744 24.5833 83.4744 23.6818C83.4744 22.7727 83.6392 21.9792 83.9688 21.3011C84.3021 20.6231 84.7642 20.0966 85.3551 19.7216C85.9498 19.3466 86.6411 19.1591 87.429 19.1591C88.2169 19.1591 88.9063 19.3466 89.4972 19.7216C90.0919 20.0966 90.554 20.6231 90.8835 21.3011C91.2169 21.9792 91.3835 22.7727 91.3835 23.6818C91.3835 24.5833 91.2169 25.3712 90.8835 26.0455C90.554 26.7197 90.0919 27.2443 89.4972 27.6193C88.9063 27.9943 88.2169 28.1818 87.429 28.1818ZM87.429 26.9773C88.0275 26.9773 88.5199 26.8239 88.9062 26.517C89.2926 26.2102 89.5786 25.8068 89.7642 25.3068C89.9498 24.8068 90.0426 24.2652 90.0426 23.6818C90.0426 23.0985 89.9498 22.5549 89.7642 22.0511C89.5786 21.5473 89.2926 21.1402 88.9062 20.8295C88.5199 20.5189 88.0275 20.3636 87.429 20.3636C86.8305 20.3636 86.3381 20.5189 85.9517 20.8295C85.5653 21.1402 85.2794 21.5473 85.0938 22.0511C84.9081 22.5549 84.8153 23.0985 84.8153 23.6818C84.8153 24.2652 84.9081 24.8068 85.0938 25.3068C85.2794 25.8068 85.5653 26.2102 85.9517 26.517C86.3381 26.8239 86.8305 26.9773 87.429 26.9773ZM93.4304 28V19.2727H94.7259V20.5909H94.8168C94.9759 20.1591 95.2637 19.8087 95.6804 19.5398C96.0971 19.2708 96.5668 19.1364 97.0895 19.1364C97.188 19.1364 97.3111 19.1383 97.4588 19.142C97.6065 19.1458 97.7183 19.1515 97.794 19.1591V20.5227C97.7486 20.5114 97.6444 20.4943 97.4815 20.4716C97.3224 20.4451 97.1539 20.4318 96.9759 20.4318C96.5516 20.4318 96.1728 20.5208 95.8395 20.6989C95.5099 20.8731 95.2486 21.1155 95.0554 21.4261C94.866 21.733 94.7713 22.0833 94.7713 22.4773V28H93.4304ZM107.179 28.1818C106.452 28.1818 105.81 27.9981 105.253 27.6307C104.696 27.2595 104.26 26.7367 103.946 26.0625C103.632 25.3845 103.474 24.5833 103.474 23.6591C103.474 22.7424 103.632 21.947 103.946 21.2727C104.26 20.5985 104.698 20.0777 105.259 19.7102C105.819 19.3428 106.467 19.1591 107.202 19.1591C107.77 19.1591 108.219 19.2538 108.548 19.4432C108.882 19.6288 109.135 19.8409 109.31 20.0795C109.488 20.3144 109.626 20.5076 109.724 20.6591H109.838V16.3636H111.179V28H109.884V26.6591H109.724C109.626 26.8182 109.486 27.0189 109.304 27.2614C109.122 27.5 108.863 27.714 108.526 27.9034C108.188 28.089 107.74 28.1818 107.179 28.1818ZM107.361 26.9773C107.899 26.9773 108.353 26.8371 108.724 26.5568C109.096 26.2727 109.378 25.8807 109.571 25.3807C109.764 24.8769 109.861 24.2955 109.861 23.6364C109.861 22.9848 109.766 22.4148 109.577 21.9261C109.387 21.4337 109.107 21.0511 108.736 20.7784C108.365 20.5019 107.906 20.3636 107.361 20.3636C106.793 20.3636 106.319 20.5095 105.94 20.8011C105.565 21.089 105.283 21.4811 105.094 21.9773C104.908 22.4697 104.815 23.0227 104.815 23.6364C104.815 24.2576 104.91 24.822 105.099 25.3295C105.293 25.8333 105.577 26.2348 105.952 26.5341C106.33 26.8295 106.8 26.9773 107.361 26.9773ZM117.48 28.1818C116.639 28.1818 115.914 27.9962 115.304 27.625C114.698 27.25 114.23 26.7273 113.901 26.0568C113.575 25.3826 113.412 24.5985 113.412 23.7045C113.412 22.8106 113.575 22.0227 113.901 21.3409C114.23 20.6553 114.688 20.1212 115.276 19.7386C115.866 19.3523 116.556 19.1591 117.344 19.1591C117.798 19.1591 118.247 19.2348 118.69 19.3864C119.134 19.5379 119.537 19.7841 119.901 20.125C120.264 20.4621 120.554 20.9091 120.77 21.4659C120.986 22.0227 121.094 22.7083 121.094 23.5227V24.0909H114.366V22.9318H119.73C119.73 22.4394 119.632 22 119.435 21.6136C119.241 21.2273 118.965 20.9223 118.605 20.6989C118.249 20.4754 117.829 20.3636 117.344 20.3636C116.81 20.3636 116.348 20.4962 115.957 20.7614C115.571 21.0227 115.274 21.3636 115.065 21.7841C114.857 22.2045 114.753 22.6553 114.753 23.1364V23.9091C114.753 24.5682 114.866 25.1269 115.094 25.5852C115.325 26.0398 115.645 26.3864 116.054 26.625C116.463 26.8598 116.938 26.9773 117.48 26.9773C117.832 26.9773 118.151 26.928 118.435 26.8295C118.723 26.7273 118.971 26.5758 119.179 26.375C119.387 26.1705 119.548 25.9167 119.662 25.6136L120.957 25.9773C120.821 26.4167 120.592 26.803 120.27 27.1364C119.948 27.4659 119.55 27.7235 119.077 27.9091C118.603 28.0909 118.071 28.1818 117.48 28.1818ZM129.315 21.2273L128.111 21.5682C128.035 21.3674 127.923 21.1723 127.776 20.983C127.632 20.7898 127.435 20.6307 127.185 20.5057C126.935 20.3807 126.615 20.3182 126.224 20.3182C125.69 20.3182 125.245 20.4413 124.889 20.6875C124.537 20.9299 124.361 21.2386 124.361 21.6136C124.361 21.947 124.482 22.2102 124.724 22.4034C124.967 22.5966 125.346 22.7576 125.861 22.8864L127.156 23.2045C127.937 23.3939 128.518 23.6837 128.901 24.0739C129.283 24.4602 129.474 24.9583 129.474 25.5682C129.474 26.0682 129.33 26.5152 129.043 26.9091C128.759 27.303 128.361 27.6136 127.849 27.8409C127.338 28.0682 126.743 28.1818 126.065 28.1818C125.175 28.1818 124.438 27.9886 123.855 27.6023C123.272 27.2159 122.902 26.6515 122.747 25.9091L124.02 25.5909C124.141 26.0606 124.37 26.4129 124.707 26.6477C125.048 26.8826 125.493 27 126.043 27C126.668 27 127.164 26.8674 127.531 26.6023C127.902 26.3333 128.088 26.0114 128.088 25.6364C128.088 25.3333 127.982 25.0795 127.77 24.875C127.558 24.6667 127.232 24.5114 126.793 24.4091L125.338 24.0682C124.539 23.8788 123.952 23.5852 123.577 23.1875C123.205 22.786 123.02 22.2841 123.02 21.6818C123.02 21.1894 123.158 20.7538 123.435 20.375C123.715 19.9962 124.096 19.6989 124.577 19.483C125.062 19.267 125.611 19.1591 126.224 19.1591C127.088 19.1591 127.766 19.3485 128.259 19.7273C128.755 20.1061 129.107 20.6061 129.315 21.2273ZM135.288 19.2727V20.4091H130.766V19.2727H135.288ZM132.084 17.1818H133.425V25.5C133.425 25.8788 133.48 26.1629 133.589 26.3523C133.703 26.5379 133.847 26.6629 134.021 26.7273C134.199 26.7879 134.387 26.8182 134.584 26.8182C134.732 26.8182 134.853 26.8106 134.947 26.7955C135.042 26.7765 135.118 26.7614 135.175 26.75L135.447 27.9545C135.357 27.9886 135.23 28.0227 135.067 28.0568C134.904 28.0947 134.697 28.1136 134.447 28.1136C134.069 28.1136 133.697 28.0322 133.334 27.8693C132.974 27.7064 132.675 27.4583 132.436 27.125C132.201 26.7917 132.084 26.3712 132.084 25.8636V17.1818ZM137.305 28V19.2727H138.646V28H137.305ZM137.987 17.8182C137.726 17.8182 137.5 17.7292 137.311 17.5511C137.125 17.3731 137.033 17.1591 137.033 16.9091C137.033 16.6591 137.125 16.4451 137.311 16.267C137.5 16.089 137.726 16 137.987 16C138.249 16 138.472 16.089 138.658 16.267C138.847 16.4451 138.942 16.6591 138.942 16.9091C138.942 17.1591 138.847 17.3731 138.658 17.5511C138.472 17.7292 138.249 17.8182 137.987 17.8182ZM142.443 22.75V28H141.102V19.2727H142.398V20.6364H142.511C142.716 20.1932 143.027 19.8371 143.443 19.5682C143.86 19.2955 144.398 19.1591 145.057 19.1591C145.648 19.1591 146.165 19.2803 146.608 19.5227C147.051 19.7614 147.396 20.125 147.642 20.6136C147.888 21.0985 148.011 21.7121 148.011 22.4545V28H146.67V22.5455C146.67 21.8598 146.492 21.3258 146.136 20.9432C145.78 20.5568 145.292 20.3636 144.67 20.3636C144.242 20.3636 143.86 20.4564 143.523 20.642C143.189 20.8277 142.926 21.0985 142.733 21.4545C142.54 21.8106 142.443 22.2424 142.443 22.75ZM153.03 28.2045C152.477 28.2045 151.975 28.1004 151.524 27.892C151.073 27.6799 150.715 27.375 150.45 26.9773C150.185 26.5758 150.053 26.0909 150.053 25.5227C150.053 25.0227 150.151 24.6174 150.348 24.3068C150.545 23.9924 150.808 23.7462 151.138 23.5682C151.467 23.3902 151.831 23.2576 152.229 23.1705C152.63 23.0795 153.034 23.0076 153.439 22.9545C153.969 22.8864 154.399 22.8352 154.729 22.8011C155.062 22.7633 155.304 22.7008 155.456 22.6136C155.611 22.5265 155.689 22.375 155.689 22.1591V22.1136C155.689 21.553 155.536 21.1174 155.229 20.8068C154.926 20.4962 154.465 20.3409 153.848 20.3409C153.208 20.3409 152.706 20.4811 152.342 20.7614C151.979 21.0417 151.723 21.3409 151.575 21.6591L150.303 21.2045C150.53 20.6742 150.833 20.2614 151.212 19.9659C151.594 19.6667 152.011 19.4583 152.462 19.3409C152.916 19.2197 153.363 19.1591 153.803 19.1591C154.083 19.1591 154.405 19.1932 154.768 19.2614C155.136 19.3258 155.49 19.4602 155.831 19.6648C156.176 19.8693 156.462 20.178 156.689 20.5909C156.916 21.0038 157.03 21.5568 157.03 22.25V28H155.689V26.8182H155.621C155.53 27.0076 155.378 27.2102 155.166 27.4261C154.954 27.642 154.672 27.8258 154.32 27.9773C153.967 28.1288 153.537 28.2045 153.03 28.2045ZM153.234 27C153.765 27 154.212 26.8958 154.575 26.6875C154.943 26.4792 155.219 26.2102 155.405 25.8807C155.594 25.5511 155.689 25.2045 155.689 24.8409V23.6136C155.632 23.6818 155.507 23.7443 155.314 23.8011C155.125 23.8542 154.905 23.9015 154.655 23.9432C154.409 23.9811 154.168 24.0152 153.933 24.0455C153.702 24.072 153.515 24.0947 153.371 24.1136C153.022 24.1591 152.696 24.233 152.393 24.3352C152.094 24.4337 151.852 24.5833 151.666 24.7841C151.484 24.9811 151.393 25.25 151.393 25.5909C151.393 26.0568 151.566 26.4091 151.911 26.6477C152.259 26.8826 152.7 27 153.234 27ZM163.273 19.2727V20.4091H158.75V19.2727H163.273ZM160.068 17.1818H161.409V25.5C161.409 25.8788 161.464 26.1629 161.574 26.3523C161.688 26.5379 161.831 26.6629 162.006 26.7273C162.184 26.7879 162.371 26.8182 162.568 26.8182C162.716 26.8182 162.837 26.8106 162.932 26.7955C163.027 26.7765 163.102 26.7614 163.159 26.75L163.432 27.9545C163.341 27.9886 163.214 28.0227 163.051 28.0568C162.888 28.0947 162.682 28.1136 162.432 28.1136C162.053 28.1136 161.682 28.0322 161.318 27.8693C160.958 27.7064 160.659 27.4583 160.42 27.125C160.186 26.7917 160.068 26.3712 160.068 25.8636V17.1818ZM165.29 28V19.2727H166.631V28H165.29ZM165.972 17.8182C165.71 17.8182 165.485 17.7292 165.295 17.5511C165.11 17.3731 165.017 17.1591 165.017 16.9091C165.017 16.6591 165.11 16.4451 165.295 16.267C165.485 16.089 165.71 16 165.972 16C166.233 16 166.456 16.089 166.642 16.267C166.831 16.4451 166.926 16.6591 166.926 16.9091C166.926 17.1591 166.831 17.3731 166.642 17.5511C166.456 17.7292 166.233 17.8182 165.972 17.8182ZM172.632 28.1818C171.844 28.1818 171.153 27.9943 170.558 27.6193C169.967 27.2443 169.505 26.7197 169.172 26.0455C168.842 25.3712 168.678 24.5833 168.678 23.6818C168.678 22.7727 168.842 21.9792 169.172 21.3011C169.505 20.6231 169.967 20.0966 170.558 19.7216C171.153 19.3466 171.844 19.1591 172.632 19.1591C173.42 19.1591 174.109 19.3466 174.7 19.7216C175.295 20.0966 175.757 20.6231 176.087 21.3011C176.42 21.9792 176.587 22.7727 176.587 23.6818C176.587 24.5833 176.42 25.3712 176.087 26.0455C175.757 26.7197 175.295 27.2443 174.7 27.6193C174.109 27.9943 173.42 28.1818 172.632 28.1818ZM172.632 26.9773C173.231 26.9773 173.723 26.8239 174.109 26.517C174.496 26.2102 174.782 25.8068 174.967 25.3068C175.153 24.8068 175.246 24.2652 175.246 23.6818C175.246 23.0985 175.153 22.5549 174.967 22.0511C174.782 21.5473 174.496 21.1402 174.109 20.8295C173.723 20.5189 173.231 20.3636 172.632 20.3636C172.034 20.3636 171.541 20.5189 171.155 20.8295C170.768 21.1402 170.482 21.5473 170.297 22.0511C170.111 22.5549 170.018 23.0985 170.018 23.6818C170.018 24.2652 170.111 24.8068 170.297 25.3068C170.482 25.8068 170.768 26.2102 171.155 26.517C171.541 26.8239 172.034 26.9773 172.632 26.9773ZM179.974 22.75V28H178.634V19.2727H179.929V20.6364H180.043C180.247 20.1932 180.558 19.8371 180.974 19.5682C181.391 19.2955 181.929 19.1591 182.588 19.1591C183.179 19.1591 183.696 19.2803 184.139 19.5227C184.582 19.7614 184.927 20.125 185.173 20.6136C185.42 21.0985 185.543 21.7121 185.543 22.4545V28H184.202V22.5455C184.202 21.8598 184.024 21.3258 183.668 20.9432C183.312 20.5568 182.823 20.3636 182.202 20.3636C181.774 20.3636 181.391 20.4564 181.054 20.642C180.721 20.8277 180.457 21.0985 180.264 21.4545C180.071 21.8106 179.974 22.2424 179.974 22.75Z" fill="#323232"/>
</svg>
